<?xml version="1.0" encoding="utf-8"?>
<!-- Generator: Adobe Illustrator 26.2.1, SVG Export Plug-In . SVG Version: 6.00 Build 0)  -->
<svg version="1.1" id="Шар_1" xmlns="http://www.w3.org/2000/svg" xmlns:xlink="http://www.w3.org/1999/xlink" x="0px" y="0px"
	 viewBox="0 0 400 400" style="enable-background:new 0 0 400 400;" xml:space="preserve">
<style type="text/css">
	.st0{fill:#EAF6FC;}
	.st1{fill:none;stroke:#FFFFFF;stroke-width:1.5;}
</style>
<path class="st0" d="M50,0h300c27.6,0,50,22.4,50,50v300c0,27.6-22.4,50-50,50H50c-27.6,0-50-22.4-50-50V50C0,22.4,22.4,0,50,0z"/>
<ellipse transform="matrix(0.3538 -0.9353 0.9353 0.3538 -107.2176 555.37)" class="st1" cx="348.3" cy="355.3" rx="18.3" ry="30.9"/>
<path class="st1" d="M82.4,250c-60.5,12.2-75.2-51.9-33.8-126c94-140.6,242.4-98.8,265.1-71c22.6,27.8,4.4,61.1-82.8,75.7
	C143.6,143.2,158,234.7,82.4,250z"/>
</svg>
