<?xml version="1.0" encoding="utf-8"?>
<!-- Generator: Adobe Illustrator 26.2.1, SVG Export Plug-In . SVG Version: 6.00 Build 0)  -->
<svg version="1.1" id="Шар_1" xmlns="http://www.w3.org/2000/svg" xmlns:xlink="http://www.w3.org/1999/xlink" x="0px" y="0px"
	 viewBox="0 0 1170 580" style="enable-background:new 0 0 1170 580;" xml:space="preserve">
<style type="text/css">
	.st0{fill:#CCDDFF;}
	.st1{fill:none;stroke:#FFFFFF;stroke-width:1.5;}
</style>
<path class="st0" d="M50,0h1070c27.6,0,50,22.4,50,50v480c0,27.6-22.4,50-50,50H50c-27.6,0-50-22.4-50-50V50C0,22.4,22.4,0,50,0z"/>
<path class="st1" d="M75,320.5c-102.9-6.6-98.7-118.3,0-221.7c212.2-189.4,433.5-55.6,458,0c24.5,55.6-19.2,102.3-166.2,87.9
	C219.9,172.2,203.5,328.7,75,320.5z"/>
<path class="st1" d="M257,209.6c-6-13.5,7.4-32.9,29.8-43.2s45.5-7.7,51.5,5.8c6,13.5-7.4,32.9-29.8,43.2
	C286.1,225.7,263,223.1,257,209.6z"/>
<path class="st1" d="M604.8,578.6c-15.6-5.9-20.2-31.9-10.2-58.2c10-26.3,30.7-42.8,46.4-36.9c15.6,5.9,20.2,31.9,10.2,58.2
	C641.2,567.9,620.5,584.5,604.8,578.6z"/>
<path class="st1" d="M797.1,93.9c-20.2-99.5,85.8-123.5,208.4-55.5c232.4,154.5,163.4,398.5,117.4,435.8
	c-46,37.2-101.1,7.3-125.2-136.1C973.5,194.6,822.3,218.3,797.1,93.9z"/>
</svg>
